# xmcd CD database file
#
# Track frame offsets:
#	150
#	23342
#	41198
#	56861
#	81260
#	97547
#	116034
#	133410
#	149705
#	170132
#	193701
#	212111
#	228825
#	263832
#
# Disc length: 4049 seconds
#
# Revision: 0
# Processed by: cddbd v1.5.1PL0 Copyright (c) Steve Scherf et al.
# Submitted via: CDex 1.51
#
DISCID=ce0fcf0e
DTITLE=Frank Toller and les Bushmills Papas - Blues n' boogie ( live )
DYEAR=2004
DGENRE=Blues
TTITLE0=Low down dog
TTITLE1=I'm ready
TTITLE2=Roll'em pete
TTITLE3=Route 66
TTITLE4=Pinetops boogie woogie
TTITLE5=key to the highway
TTITLE6=Mojo working
TTITLE7=Squeeze me
TTITLE8=Down the road a piece
TTITLE9=Going down slow
TTITLE10=We are the boogie men
TTITLE11=Blues n' boogie
TTITLE12=Stormy monday
TTITLE13=Blues n' boogie ( presentation )
EXTD=YEAR: 2004
EXTT0=
EXTT1=
EXTT2=
EXTT3=
EXTT4=
EXTT5=
EXTT6=
EXTT7=
EXTT8=
EXTT9=
EXTT10=
EXTT11=
EXTT12=
EXTT13=
PLAYORDER=
